<?xml version="1.0" encoding="UTF-8"?>
<svg id="Layer_1" data-name="Layer 1" xmlns="http://www.w3.org/2000/svg" viewBox="0 0 512.01 512.01">
  <defs>
    <style>
      .cls-1 {
        fill: #827122;
      }
    </style>
  </defs>
  <path class="cls-1" d="M493.41,24.61L389.41.61c-11.3-2.6-22.9,3.3-27.5,13.9l-48,112c-4.2,9.8-1.4,21.3,6.9,28l60.6,49.6c-36,76.7-98.9,140.5-177.2,177.2l-49.6-60.6c-6.8-8.3-18.2-11.1-28-6.9l-112,48c-10.7,4.7-16.6,16.3-14,27.6l24,104c2.5,10.8,12.1,18.6,23.4,18.6,256.1,0,464-207.5,464-464,0-11.2-7.7-20.9-18.6-23.4Z"/>
</svg>